<svg xmlns="http://www.w3.org/2000/svg" xmlns:xlink="http://www.w3.org/1999/xlink" width="113.893" height="72.418" viewBox="0 0 113.893 72.418"><defs><linearGradient id="a" x1="0.551" y1="-0.233" x2="0.395" y2="0.672" gradientUnits="objectBoundingBox"><stop offset="0" stop-color="#ff8741"/><stop offset="1" stop-color="#ff506c"/></linearGradient></defs><g transform="translate(0 0)"><g transform="translate(0 0)"><path d="M18.874,200.517l-6.806-15.972-6.9,15.972H.95l9.057-20.927H14.5l9.028,20.927Z" transform="translate(-0.95 -128.099)"/><path d="M335.674,200.517l-6.806-15.972-6.9,15.972H317.75l9.057-20.927H331.3l9.028,20.927Z" transform="translate(-226.43 -128.099)"/><path d="M125.61,200.517V179.59h4.309v17.543h10.841v3.384Z" transform="translate(-89.676 -128.099)"/><path d="M219.138,200.517,210.11,179.59h4.65l6.806,15.975,6.9-15.975h4.217l-9.057,20.927Z" transform="translate(-149.818 -128.099)"/><path d="M91.986,37.706l4.381-9.028,4.382,9.028ZM55,3.792C65.348-2.486,87.363,1.919,94.563,14.654L80.531,44.837c.144-10.516-14.214-11.3-.8-23.06C65.164,18,72.739,1.437,55,3.792Zm82.709,0c-10.325-6.278-32.337-1.874-39.54,10.861L112.2,44.837c-.144-10.516,14.214-11.3.8-23.06C127.571,18,119.993,1.437,137.73,3.792Z" transform="translate(-39.42 -0.962)" fill="url(#a)"/></g></g></svg>