<svg id="Layer_1" data-name="Layer 1" xmlns="http://www.w3.org/2000/svg" viewBox="0 0 231.23 69.57"><defs><style>.cls-1{fill:#000;}</style></defs><title>LineArtboard 1</title><path class="cls-1" d="M201.41,46.93h0Z"/><path class="cls-1" d="M105.07,17.75c.44.12,1.91.49,4.12.86.42.07.82.15,1.43.24h.12a.86.86,0,0,0,.64-.28.38.38,0,0,0,.06-.38.37.37,0,0,0-.32-.23q-1-.15-2-.33c-5.84-1.22-10.79-4.22-16.83-5.46-6.77-1.39-14.51,1-21,4.75C49.73,29.64,39.35,33.11,35.1,33.79a46,46,0,0,1-5.56.53.61.61,0,0,0-.48.28.27.27,0,0,0,0,.25.26.26,0,0,0,.24.11h0c1.13,0,1.82,0,4.38-.2,9.5-1.15,16-5,23-8.2,7.17-3.24,11.28-5.93,17.62-8.47S85.72,13.93,93,14.78C97.14,15.27,101,16.75,105.07,17.75Zm6,.77v0h0v0Z"/><path class="cls-1" d="M199.52,44.28c-4.65-5.62-27.06-6.64-27.89-8-.19-.3,1.71-5.28,2.41-6.31,0,0,.07,0,.12,0a12.35,12.35,0,0,0,4.61.06,6.72,6.72,0,0,1,3.07.26l.43.16h0l1.07.52a.46.46,0,0,0,.2,0,.64.64,0,0,0,.32-.1.42.42,0,0,0,.22-.37.34.34,0,0,0-.2-.29,11,11,0,0,0-1.69-.95,11.65,11.65,0,0,0-3.36-.51,11.15,11.15,0,0,1-3.19-.41c-1-.3-2.24-1.53-2.58-.68-.08.19-7.06,11.29-5.4,11.63.52.11,25.17.93,31.43,5.37C199.41,45,200,44.79,199.52,44.28Z"/><path class="cls-1" d="M123.92,20c5.74,0,13.36-1.26,17.63-3.84a42,42,0,0,0,3.81-2.64,19.79,19.79,0,0,1,5.77-3.35A32.55,32.55,0,0,1,163,8.58,80.61,80.61,0,0,1,173.89,10a.67.67,0,0,0,.76-.4.4.4,0,0,0-.35-.47h0a69.08,69.08,0,0,0-14.65-2c-5.35-.07-9.34.65-12.55,2.25A21.92,21.92,0,0,0,143,12.28c-.63.51-1.28,1-2,1.57-3.89,2.83-11.08,6-23.27,5a.85.85,0,0,0-.69.32.41.41,0,0,0,0,.41.42.42,0,0,0,.38.23c.66,0,2,.17,3.31.2Z"/><path class="cls-1" d="M166.22,44.13a9.64,9.64,0,0,0-4.85-2c-2.2-.35-5.11-.69-5.69-1.16-1.38-1.12-3.06-9-3.47-9.9-.79-1.64-2.8-1.42-4.62-1.3l-.61,0L146,30a.22.22,0,0,0-.19.14.25.25,0,0,0,0,.27.36.36,0,0,0,.28.15,1.29,1.29,0,0,1,.7,2.17c-.78,1-5.28,6.58-15.6,7.54A31.12,31.12,0,0,1,117,37.67c-7.63-3.67-15.13-6.16-23.4-4.3l-1.48.35a.22.22,0,0,0-.19.17.29.29,0,0,0,.1.3.47.47,0,0,0,.33.16h.07c.3-.08,1.48-.28,1.85-.34a28.49,28.49,0,0,1,17.27,2.49c3.74,2,12.91,8.43,25.07,5.32,7.21-1.84,9.26-4,12.92-7.61.11-.11.83-.78.94-.9.13.3,1.85,6.22,2.45,8.84a1.81,1.81,0,0,0,.46,1,2.68,2.68,0,0,0,1.72.46c1.67,0,4.74.06,7.14.2a5.48,5.48,0,0,1,3.93,1.49.46.46,0,0,0,.63,0,.33.33,0,0,0,.08-.43A3,3,0,0,0,166.22,44.13Z"/><path class="cls-1" d="M196.05,26.54c-2.55-4.9-1.34-7-2.22-8.4s-5.87-4-8.4-5.13c-3.46-1.55-6.64-2.87-6.7-2.89-.23-.08-.55.11-.29.36a7.12,7.12,0,0,1,1,1.08c.23.36.41,1.08.73,1.1a17.07,17.07,0,0,1,6.92,2c1.18.6,2.34,1.28,3.47,2s2.9,1.66,2.94,3.09c.12,5.11,2,6.49,1.88,7.64a2.92,2.92,0,0,1-.32,1.05,9,9,0,0,1-.93,1.18h0a8.47,8.47,0,0,1-2.58,1.81,2.43,2.43,0,0,1-3-1.22c-.09-.55.72-.84,1.83-1.3,2-.81,2.29-3.39,1.84-5.13a7.6,7.6,0,0,1-.24-1,1.79,1.79,0,0,1,0-.4,1.6,1.6,0,0,1,.4-.91c0-.05.21-.29-.11-.39s-1.63-.44-2.72-.66l-.87-.2a.28.28,0,0,0-.26.08c-.13.19.09.42.27.5a7.05,7.05,0,0,1,2.1,1.88,4.89,4.89,0,0,1,1,2c.21,1.44-.22,3.19-1.47,3.71s-2,.46-4.33.17a.35.35,0,0,0-.38.22.57.57,0,0,0,.22.61c.11.07.31.24.55.42.6.47,1.14.84,1.46,1.08.92.75,2,1.66,2.05,1.67,1.29.73,5.81-2.35,6.31-4.59A1.88,1.88,0,0,0,196.05,26.54Z"/><path class="cls-1" d="M21.2,51.87H9.7v2.44H20.53V57.7H9.7v2.47H21.37v3.91H5.25V47.94h16Z"/><path class="cls-1" d="M33.61,53.93h1.87l5.84-6h5.92l-7.89,8,8.93,8.18H42.09L35.48,58H33.61v6.1H29.16V47.94h4.45Z"/><path class="cls-1" d="M69.5,51.87H58v2.44H68.84V57.7H58v2.47H69.68v3.91H53.56V47.94H69.5Z"/><path class="cls-1" d="M89.47,47.94c2.31,0,3.89.38,4.73,1.14s1.25,2.14,1.25,4.15a6.61,6.61,0,0,1-.56,3.11A2.82,2.82,0,0,1,93,57.71a3.08,3.08,0,0,1,1.74,1.07,3.27,3.27,0,0,1,.58,2v3.3H90.87V61.62a1.71,1.71,0,0,0-.4-1.31A2.57,2.57,0,0,0,88.86,60H82.22v4.13H77.75V47.94Zm-.17,4H82.22v3.95H89.3a1.51,1.51,0,0,0,1.25-.46,2.85,2.85,0,0,0,.36-1.67,2.09,2.09,0,0,0-.38-1.38A1.56,1.56,0,0,0,89.3,52Z"/><path class="cls-1" d="M115.31,47.94a16.28,16.28,0,0,1,3.24.24,4.52,4.52,0,0,1,1.8.8,4.11,4.11,0,0,1,1.3,1.85,9.15,9.15,0,0,1,.4,3v4.37a9.07,9.07,0,0,1-.4,3,4.14,4.14,0,0,1-1.3,1.86,4.39,4.39,0,0,1-1.8.8,16.28,16.28,0,0,1-3.24.24h-11V47.94Zm1.16,1.8H106.14V62.28h10.33a3.86,3.86,0,0,0,2.87-.87,4.38,4.38,0,0,0,.82-3V53.66a4.66,4.66,0,0,0-.77-3.1A4,4,0,0,0,116.47,49.74Z"/><path class="cls-1" d="M128.82,64.08V47.94h14.37v1.8H130.6V54.8h12.06v1.8H130.6v5.68h12.59v1.8Z"/><path class="cls-1" d="M150.09,58.81h1.74c0,.08,0,.18,0,.31,0,.32,0,.53,0,.65a2.34,2.34,0,0,0,.91,2.12,6.58,6.58,0,0,0,3.37.6h3.81c2,0,3.28-.22,3.88-.66a2.88,2.88,0,0,0,.9-2.48,2.77,2.77,0,0,0-.63-2.1,4.06,4.06,0,0,0-2.58-.57h-6.17c-1.95,0-3.31-.34-4.1-1A4.28,4.28,0,0,1,150,52.23a4.08,4.08,0,0,1,1.35-3.49c.9-.67,2.54-1,4.93-1h3.32a21.44,21.44,0,0,1,3.8.23,3.58,3.58,0,0,1,1.71.79,2.88,2.88,0,0,1,.74,1.25,6.73,6.73,0,0,1,.24,2v.46h-1.74v-.25a2.65,2.65,0,0,0-.7-2.15,5.12,5.12,0,0,0-2.92-.55h-5a5.68,5.68,0,0,0-3.06.57,2.45,2.45,0,0,0-.79,2.12,2.55,2.55,0,0,0,.77,2.14,5.82,5.82,0,0,0,3.2.59h5.25a16.42,16.42,0,0,1,2.58.15,3.64,3.64,0,0,1,1.39.5,2.66,2.66,0,0,1,1.07,1.37,7.62,7.62,0,0,1,.32,2.56c0,1.79-.43,3-1.31,3.75s-2.44,1.06-4.72,1.06h-4.95a6.92,6.92,0,0,1-4.19-1A3.9,3.9,0,0,1,150.05,60c0-.21,0-.55,0-1A.87.87,0,0,1,150.09,58.81Z"/><path class="cls-1" d="M175.12,64.08h-1.81V47.94h1.81Z"/><path class="cls-1" d="M195.29,62.41a3.92,3.92,0,0,0,2.79-.73c.46-.49.69-1.53.69-3.13v-.83h-7.49v-1.8h9.31v2.63a13.52,13.52,0,0,1-.26,3.23,3.19,3.19,0,0,1-.91,1.47,3.28,3.28,0,0,1-1.64.79,17.49,17.49,0,0,1-3.43.23h-5.22a14.28,14.28,0,0,1-3.24-.26,3.77,3.77,0,0,1-1.72-.89,4,4,0,0,1-1-1.8,10.77,10.77,0,0,1-.33-3V53.94a12.4,12.4,0,0,1,.33-3.2,4,4,0,0,1,1-1.88,3.74,3.74,0,0,1,1.72-.87,14.81,14.81,0,0,1,3.22-.26h5.24c2.38,0,4,.33,4.84,1s1.26,1.84,1.26,3.57v.51c0,.12,0,.23,0,.34h-1.66V52.9a3.7,3.7,0,0,0-.75-2.64,3.73,3.73,0,0,0-2.66-.75h-7a5.88,5.88,0,0,0-2,.27,2.31,2.31,0,0,0-1.12.9,3,3,0,0,0-.4,1.06,12.5,12.5,0,0,0-.12,2.08V58.1a12.27,12.27,0,0,0,.12,2.07,3.09,3.09,0,0,0,.4,1.07,2.27,2.27,0,0,0,1.12.9,6,6,0,0,0,2,.27Z"/><path class="cls-1" d="M209.37,64.08h-1.81V47.94h2.85l13.2,14.3V47.94h1.8V64.08h-2.65L209.37,49.57Z"/></svg>
