<?xml version="1.0" encoding="UTF-8"?>
<!-- Generator: Adobe Illustrator 21.0.0, SVG Export Plug-In . SVG Version: 6.00 Build 0)  -->
<svg version="1.1" id="Layer_1" xmlns="http://www.w3.org/2000/svg" xmlns:xlink="http://www.w3.org/1999/xlink" x="0px" y="0px" viewBox="0 0 141.7 31.2" style="enable-background:new 0 0 141.7 31.2;" xml:space="preserve">
<style type="text/css">
	.st0{fill:url(#SVGID_1_);}
	.st1{fill:url(#SVGID_2_);}
	.st2{fill:url(#SVGID_3_);}
	.st3{fill:url(#SVGID_4_);}
	.st4{fill:url(#SVGID_5_);}
</style>
<g>
	<linearGradient id="SVGID_1_" gradientUnits="userSpaceOnUse" x1="0" y1="15.6214" x2="141.6675" y2="15.6214">
		<stop offset="5.000000e-02" style="stop-color:#021946"/>
		<stop offset="0.95" style="stop-color:#EF3340"/>
	</linearGradient>
	<path class="st0" d="M116.7,1.9l-11.7,26.7c-0.3,0.8-1.1,1.3-2,1.3h-1c-0.9,0-1.6-0.5-2-1.3L88.5,1.9c-0.1-0.2,0.1-0.5,0.3-0.5h2.8   c1.1,0,2.2,0.7,2.6,1.7l8.2,18.8c0.1,0.2,0.5,0.2,0.6,0l7.9-18.8c0.4-1.1,1.5-1.8,2.7-1.8h2.8C116.7,1.4,116.8,1.6,116.7,1.9z"/>
	<linearGradient id="SVGID_2_" gradientUnits="userSpaceOnUse" x1="0" y1="15.6215" x2="141.6675" y2="15.6215">
		<stop offset="5.000000e-02" style="stop-color:#021946"/>
		<stop offset="0.95" style="stop-color:#EF3340"/>
	</linearGradient>
	<path class="st1" d="M141.7,29.4L130.1,2.7c-0.3-0.8-1.1-1.3-2-1.3h-1c-0.9,0-1.6,0.5-2,1.3l-11.7,26.7c-0.1,0.2,0.1,0.5,0.3,0.5   h2.8c1.2,0,2.2-0.7,2.7-1.8l2.4-5.8c0.1-0.1,0.2-0.2,0.3-0.2h8.9c1.5,0,2.8,0.9,3.4,2.2l1.7,3.8c0.5,1,1.5,1.7,2.6,1.7h2.8   C141.6,29.9,141.8,29.6,141.7,29.4z M126.3,18c-1.3,0-2.2-1.3-1.7-2.6l2.6-6.1c0.1-0.3,0.5-0.3,0.6,0l3.6,8.2   c0.1,0.2-0.1,0.5-0.3,0.5H126.3z"/>
	<linearGradient id="SVGID_3_" gradientUnits="userSpaceOnUse" x1="0" y1="15.59" x2="141.6675" y2="15.59">
		<stop offset="5.000000e-02" style="stop-color:#021946"/>
		<stop offset="0.95" style="stop-color:#EF3340"/>
	</linearGradient>
	<path class="st2" d="M71.2,0.8c-8.2,0-14.8,6.6-14.8,14.8c0,8.2,6.6,14.8,14.8,14.8c8.2,0,14.8-6.6,14.8-14.8   C86,7.4,79.4,0.8,71.2,0.8z M71.2,25.5c-5.5,0-9.9-4.4-9.9-9.9c0-5.5,4.4-9.9,9.9-9.9c5.5,0,9.9,4.4,9.9,9.9   C81.1,21.1,76.7,25.5,71.2,25.5z"/>
	<linearGradient id="SVGID_4_" gradientUnits="userSpaceOnUse" x1="0" y1="15.6214" x2="141.6675" y2="15.6214">
		<stop offset="5.000000e-02" style="stop-color:#021946"/>
		<stop offset="0.95" style="stop-color:#EF3340"/>
	</linearGradient>
	<path class="st3" d="M50.4,1.7v27.8c0,0.2-0.2,0.4-0.4,0.4h-2.8c-0.9,0-1.8-0.4-2.3-1.2L31.3,10c-0.2-0.3-0.7-0.1-0.7,0.2v17.5   c0,1.2-1,2.2-2.2,2.2h-2.1c-0.2,0-0.4-0.2-0.4-0.4V1.7c0-0.2,0.2-0.4,0.4-0.4h2.8c0.9,0,1.8,0.4,2.3,1.2l13.7,18.7   c0.2,0.3,0.7,0.1,0.7-0.2V3.5c0-1.2,1-2.2,2.2-2.2h2.1C50.3,1.4,50.4,1.5,50.4,1.7z"/>
	<linearGradient id="SVGID_5_" gradientUnits="userSpaceOnUse" x1="6.851233e-07" y1="15.6214" x2="141.6676" y2="15.6214">
		<stop offset="5.000000e-02" style="stop-color:#021946"/>
		<stop offset="0.95" style="stop-color:#EF3340"/>
	</linearGradient>
	<path class="st4" d="M19.5,27.4v2.1c0,0.2-0.2,0.4-0.4,0.4h-17c-1.2,0-2.2-1-2.2-2.2L0,3.5c0-1.2,1-2.2,2.2-2.2h17   c0.2,0,0.4,0.2,0.4,0.4v2.1c0,1.2-1,2.2-2.2,2.2H5C4.8,6,4.6,6.1,4.6,6.3V13c0,0.2,0.2,0.4,0.4,0.4l9.6,0c0.2,0,0.4,0.2,0.4,0.4   v2.1c0,1.2-1,2.2-2.2,2.2l-5.3,0c-1.6,0-2.9,1.3-2.9,2.9v4.1c0,0.2,0.2,0.4,0.4,0.4h12.4C18.6,25.3,19.5,26.2,19.5,27.4z"/>
</g>
</svg>