<svg id="Layer_1" data-name="Layer 1" xmlns="http://www.w3.org/2000/svg" viewBox="0 0 2402.58 577.01"><defs><style>.cls-1{fill:#231f20;}.cls-2{fill:#ec1c24;}.cls-3{fill:#910d23;}.cls-4{fill:#be1e2d;}</style></defs><title>VectorNav_Logo_ForWeb_RGB</title><path class="cls-1" d="M825.42,276.55l15.6-27v-.12H708.57V388.13H825.39l15.51-26.85V361h-102V331.84H801l15.68-27.16H738.91V276.55Z"/><path class="cls-1" d="M904.32,319.15v-.4c0-39.44,29.73-71.74,72.34-71.74,26.16,0,41.81,8.72,54.7,21.4l-19.43,22.4c-10.7-9.71-21.6-15.66-35.47-15.66-23.39,0-40.23,19.42-40.23,43.21v.39c0,23.79,16.45,43.6,40.23,43.6,15.85,0,25.56-6.34,36.46-16.25l19.43,19.62c-14.27,15.26-30.13,24.78-56.88,24.78C934.64,390.5,904.32,359,904.32,319.15Z"/><path class="cls-1" d="M1105.1,249.39v28.15h49.58V388.13h30.51V277.54h46.19l16.26-28.15Z"/><path class="cls-1" d="M1291.86,319.15v-.4c0-39.44,31.11-71.74,73.92-71.74s73.53,31.91,73.53,71.35v.39c0,39.44-31.12,71.75-73.93,71.75S1291.86,358.59,1291.86,319.15Zm115.54,0v-.4c0-23.78-17.44-43.6-42-43.6s-41.61,19.42-41.61,43.21v.39c0,23.79,17.44,43.6,42,43.6S1407.4,342.93,1407.4,319.15Z"/><path class="cls-1" d="M1595.29,316.77c14.87,0,23.39-7.93,23.39-19.62v-.4c0-13.08-9.12-19.81-24-19.81h-52.17V388.12H1512V249.39h85.26c17.64,0,31.32,5,40.43,14.07,7.73,7.73,11.89,18.63,11.89,31.71v.4c0,22.39-12.08,36.46-29.72,43l33.89,49.55h-35.68l-47.47-70.9"/><path class="cls-1" d="M1731.43,249.39h28.37l81.48,99.75V249.39h27.66V388.12h-30.68l-76.15-89.73v89.73h-30.68Z"/><polygon class="cls-1" points="1930.99 388.12 2011.1 249.39 2091.2 388.12 2058.27 388.12 2011.1 306.39 1963.92 388.12 1930.99 388.12"/><polygon class="cls-1" points="2263.86 249.39 2183.75 388.12 2103.65 249.39 2136.58 249.39 2183.75 331.12 2230.93 249.39 2263.86 249.39"/><polygon class="cls-1" points="637.85 249.39 557.75 388.12 477.65 249.39 510.58 249.39 557.75 331.12 604.93 249.39 637.85 249.39"/><polygon class="cls-2" points="375.75 249.74 311.66 249.74 311.66 138.73 375.75 249.74"/><polygon class="cls-2" points="268.44 363.41 225.19 288.5 225.19 388.39 311.66 438.28 268.44 363.41"/><polygon class="cls-2" points="441.39 363.41 398.14 288.5 398.14 388.39 484.61 438.28 441.39 363.41"/><polygon class="cls-3" points="311.66 249.74 311.66 360.78 247.58 249.74 311.66 249.74"/><polygon class="cls-3" points="225.19 388.39 138.73 438.28 225.19 438.28 311.66 438.28 225.19 388.39"/><polygon class="cls-3" points="398.14 388.39 311.68 438.28 398.14 438.28 484.61 438.28 398.14 388.39"/><polygon class="cls-4" points="311.66 138.73 311.66 249.74 247.58 249.74 311.66 138.73"/><polygon class="cls-4" points="375.75 249.74 311.66 360.78 311.66 249.74 375.75 249.74"/><polygon class="cls-4" points="181.95 363.41 138.73 438.28 225.19 388.39 225.19 288.5 181.95 363.41"/><polygon class="cls-4" points="354.89 363.41 311.68 438.28 398.14 388.39 398.14 288.5 354.89 363.41"/></svg>